<svg t="1617713528235" viewBox="0 0 1024 1024" version="1.1" xmlns="http://www.w3.org/2000/svg" p-id="2152">
  <path
    d="M93.2 622c-10.8-9.9-4.6-26.6-4.6-26.6l50.3-83.6L80 417.7c-5.2-8.8-8.9-15.7-11.1-20.7-2.2-4.9-3.3-9.3-3.3-12.9 0-6 2.2-11.2 6.6-15.6 4.4-4.4 9.8-6.5 16.2-6.5 6.8 0 11.9 2 15.4 6.1s8.7 12.2 15.7 24.3l45.6 78.7 46.1-78.7c2.8-4.8 5.1-8.9 7-12.2 1.9-3.3 4-6.4 6.2-9.3 2.3-2.9 4.8-5.1 7.6-6.6s6.2-2.3 10.2-2.3c6.2 0 11.4 2.2 15.6 6.5 4.2 4.3 6.2 9.3 6.2 14.9 0 4.6-1.1 9.2-3.2 13.8-2.1 4.6-5.7 11-10.8 19.1L123.1 618.8c0 6-19.2 13.1-29.9 3.2zM455.6 485.5v-99.7c0-8.5 1.8-14.9 5.4-19.1 3.6-4.2 8.3-6.4 14.2-6.4 6.1 0 11 2.1 14.6 6.4 3.6 4.2 5.4 10.6 5.4 19.1v102c0 11.6 1.2 21.3 3.7 29.1 2.4 7.8 6.8 13.8 13 18.1 6.2 4.3 14.9 6.4 26.1 6.4 15.5 0 26.4-4.4 32.8-13.1 6.4-8.7 9.6-22 9.6-39.7V385.8c0-8.6 1.8-15 5.3-19.2s8.3-6.3 14.3-6.3 10.8 2.1 14.5 6.3c3.7 4.2 5.5 10.6 5.5 19.2v99.7c0 16.2-1.5 29.8-4.5 40.6s-8.6 20.4-16.9 28.6c-7.1 7-15.4 12.1-24.8 15.3-9.4 3.2-20.4 4.8-33 4.8-15 0-27.9-1.7-38.8-5.2-10.8-3.4-19.7-8.8-26.5-16-6.8-7.2-11.9-16.5-15.1-27.7-3.2-11.3-4.8-24.7-4.8-40.4zM447 465.5c-0.4-21.7-4.4-40.5-12.2-56.5-7.7-15.9-19-28.2-33.6-36.6-14.7-8.5-32.1-12.5-52.4-12.2-14.9 0.3-28.2 3-39.8 8.1-11.6 5.2-21.5 12.5-29.5 21.9-8 9.5-14.1 20.9-18.1 34.3-4.1 13.4-6 28-5.7 44 0.3 15.6 2.6 30 7 43.3 4.4 13.3 10.7 24.7 18.9 34.1 8.2 9.4 18.5 16.6 30.6 21.6 12.2 5 25.9 7.4 41.2 7.1 15.4-0.3 29-3.1 40.8-8.3 11.8-5.3 21.7-12.8 29.7-22.6s13.9-21.2 17.8-34.4 5.5-27.8 5.3-43.8z m-46.8 42.8c-4.8 11.3-11.4 19.7-19.8 25.2s-17.6 8.4-27.8 8.5c-7.9 0.1-15.2-1.3-21.9-4.3s-12.6-7.6-17.8-13.8c-5.2-6.2-9.3-14-12.3-23.5s-4.6-20.1-4.8-31.9c-0.2-11.7 1-22.3 3.6-31.7 2.6-9.4 6.3-17.2 11.1-23.3 4.7-6.1 10.4-10.8 17.1-14.1 6.6-3.3 13.9-5 21.8-5.1 11.1-0.2 21 2.5 29.7 8 8.7 5.6 15.4 13.9 20.2 24.9 4.8 11 7.4 24.2 7.6 39.3 0.4 16.6-1.9 30.5-6.7 41.8z"
    fill="#FF6A49" p-id="2153"></path>
  <path
    d="M792.8 386.7c-0.1-8.3 1.5-14.5 5.1-18.7 3.5-4.2 8.2-6.3 14-6.4 6.1-0.1 11 1.9 14.7 5.9 3.7 4.1 5.6 10.2 5.7 18.5l1.7 99.2c0.2 11.3 1.6 20.7 4.1 28.2 2.6 7.5 7 13.3 13.3 17.4 6.3 4.1 15 6 26.1 5.8 15.4-0.3 26.2-4.7 32.5-13.3 6.2-8.6 9.2-21.5 8.9-38.7l-1.7-100c-0.1-8.3 1.5-14.6 5-18.7s8.2-6.3 14.1-6.4c5.9-0.1 10.8 1.9 14.5 5.9 3.7 4 5.7 10.2 5.8 18.5l1.7 97c0.3 15.8-1 29-3.8 39.5-2.8 10.6-8.2 20-16.3 28.1-7 6.9-15.1 12-24.4 15.3-9.3 3.3-20.3 5-32.9 5.3-15 0.3-27.9-1.2-38.7-4.3-10.9-3.2-19.8-8.2-26.7-15.1-6.9-6.9-12.1-15.8-15.5-26.7-3.4-10.9-5.2-24-5.5-39.2l-1.7-97.1zM668.7 386.4v70.7l77.5-83.6c3.7-4 6.9-7 9.5-8.9 2.6-1.9 6.1-2.9 10.4-2.9 5.7 0 10.3 1.7 13.8 5.2 3.5 3.4 5.2 7.6 5.2 12.6 0 6-3 11.9-8.9 17.7l-48 47 55.3 82c3.9 5.7 6.8 10.7 8.8 14.9 1.9 4.3 2.9 8.4 2.9 12.4 0 4.5-1.7 8.4-5.1 11.7-3.4 3.3-8 5-13.9 5-5.5 0-10-1.2-13.4-3.6-3.5-2.4-6.4-5.7-8.8-9.7s-4.5-7.7-6.4-11L701 471.5l-32.3 32v41.7c0 8.4-1.9 14.7-5.6 18.8-3.7 4.1-8.5 6.1-14.4 6.1-3.4 0-6.6-0.9-9.7-2.8-3.1-1.8-5.5-4.3-7.2-7.4-1.2-2.6-2-5.5-2.3-8.9-0.3-3.4-0.4-8.3-0.4-14.7V386.4c0-8.2 1.8-14.4 5.2-18.6 3.5-4.1 8.3-6.2 14.3-6.2 5.9 0 10.7 2 14.4 6.1 3.9 4.1 5.7 10.4 5.7 18.7z"
    fill="#3DBCF3" p-id="2154"></path>
</svg>