<svg t="1617714151144" viewBox="0 0 1024 1024" version="1.1" xmlns="http://www.w3.org/2000/svg" p-id="3304">
  <path
    d="M551.3 560.2c-7.6-6.7-14.7-13-22.2-19.7-0.9 1-2.2 2.3-3.4 3.7-7.2 8.6-16.1 15.3-25.8 20.7-2.5 1.4-6.2 1.4-9.1 0.8-5-1.1-6.4-7.7-2.2-10.8 4.1-3.1 8.7-5.5 13-8.4 12.8-8.9 22-20.8 28.9-34.6 0.3-0.6 0.5-1.2 0.9-2.4-1.6-0.1-2.8-0.3-4-0.3H509c-4.7-0.1-6.3-1.4-7.9-5.6-0.3-0.7-1.5-1.5-2.4-1.5-6-0.3-8-2.2-7.9-8.2 0.1-5.2 0-10.4 0.8-15.5 0.6-4.5 4.6-7.1 9.2-7.1h18c-1.8-2.7-3.1-4.5-4.2-6.3-1.6-2.7-2.9-5.5-4.5-8.1-0.4-0.7-1.5-1.3-2.4-1.4-2.2-0.4-4.5-0.4-6.6-0.9-3.4-0.8-5.4-3.5-5.1-6.6 0.3-3.2 3-5.8 6.5-5.7 10.3 0.1 20.5 0.7 30.8 0.7 25.5 0.1 50.9-1.4 76.1-5.5 2.8-0.5 5.9-0.7 8.6-0.2 2.8 0.5 4.6 2.7 4.5 5.9-0.1 3.3-1.6 5.7-5 6.4-3.9 0.8-7.8 1.4-11.2 2-0.6 3.3-0.9 6.6-1.8 9.7-1 3.2-2.6 6.2-4.2 10.1h13c0.9 0 1.9 0.1 2.8 0 10.5-0.9 13.1 5.7 11.7 14.5-0.5 3.4-1.5 6.7-2.4 9.9-1.9 6.9-3.6 8.1-10.9 7.8-1.6 4.7-5.4 5.8-10 5.8-16.8-0.1-33.6-0.1-50.4-0.1-7.2 0-7.2 0.1-8.6 7.9 1.3 0.1 2.5 0.3 3.8 0.3 14.9 0 29.8 0 44.7 0.1 2 0 4 0.2 5.9 0.7 3.3 0.8 5.2 3.3 4.7 6.5-0.6 3.6-1.6 7.4-3.3 10.7-4 7.7-9.9 14-16.5 19.6-0.9 0.8-1.7 1.6-3.3 3.1 6.9 2.2 13 4.6 19.4 6 8.4 1.7 16.9 2.7 25.5 3.8 4.9 0.6 7.4 3.4 6.8 8.4-0.4 3.5-4.1 5.7-8.3 5.3-19-1.8-37.2-6.5-54.8-14-1.6-0.7-4.1-0.5-5.6 0.3-16.7 8.9-34.9 12.6-53.4 15.1-3.8 0.5-7.9 0.9-10.5-3.2-2.9-4.5 0.7-10.2 6.8-10.5 11.9-0.6 23.6-2.3 35.1-5.7 2.6-1.1 5.5-2.3 8.8-3.5z m1.4-64.7c1.7 0.1 3.2 0.3 4.7 0.3h47.1c6.1 0 6.1 0.1 8.2-5.6 1.5-4.1 1-5-3.2-5-17.6-0.1-35.2 0-52.8 0-0.9 0-2.3 0.9-2.5 1.6-0.7 2.7-1 5.4-1.5 8.7z m-11.5 35.7c6.8 9.2 14.8 14.8 23.4 19.7 0.6 0.3 1.8 0.2 2.3-0.2 6-4.9 11.9-9.9 17.8-15 0.8-0.7 0.8-2.3 1.2-3.5-1.1-0.4-2.3-1-3.4-1-11-0.1-22-0.1-32.9-0.1-2.5 0.1-4.9 0.1-8.4 0.1z m19.6-76.2c2.1 5.3 3.9 10.1 6 14.7 0.3 0.8 1.7 1.4 2.6 1.5 3.8 0.2 7.6 0.1 11.3 0.1 0.9 0 2-0.2 2.6-0.8 4.7-5 8-10.8 10.1-17.9-11.1 0.8-21.6 1.6-32.6 2.4z m-56 40.8H534c1.1 0 2.9-0.3 3.1-0.9 1.2-2.9 1.9-5.9 3-9.6h-4.3c-7.4 0-14.9-0.1-22.3-0.1-10.1 0-10.1 0-8.9 10.2 0 0.1 0.1 0.2 0.2 0.4z m28.5-24.8h19.3c-0.6-1.6-1-2.7-1.5-3.9-1.2-3-2.9-6-3.7-9.1-0.5-2.1-1.5-2.7-3.3-2.7h-17c-0.7 0-1.5 0.4-2.1 0.6 2.9 5.1 5.5 9.9 8.3 15.1zM197.5 585.5c2.2 0.3 3.6 0.7 5 0.7 3.8 0.1 7.6 0 11.4 0 2.5 0 3.7 1.3 3.8 3.7 0.1 3 0 5.9 0 8.9 0 2.3-1.2 3.5-3.5 3.5-6 0-12.1 0.1-18.1-0.2-7.9-0.4-11.6-3.6-13.6-11.4-0.2-0.9-0.7-1.7-1-2.7-7.2 0-14.4 0.5-21.5-0.1-8.9-0.7-17.7-2.9-25.3-8-6.3-4.1-8.7-10.4-8.7-17.6-0.1-34.8 0-69.5 0-104.3 0-9.1 4.5-15.7 12.4-19.9 12.7-6.6 26.5-7.5 40.3-6 7.7 0.8 15.6 2.6 22.8 5.4 8.7 3.4 13 10.5 12.9 20.3-0.2 35.1-0.1 70.2 0 105.4 0 9.7-5.2 15.5-13.1 19.7-0.7 0.4-1.5 0.7-2.2 1.1-0.2 0.1-0.4 0.4-1.6 1.5z m-38.7-75.8v51.1c0 3.4 0.5 6.9 3.7 8.6 4.8 2.6 10.1 3 15 0.6 4.1-2 4.3-6.4 4.3-10.5v-95.4c0-2.4 0.1-4.7-0.1-7.1-0.5-5.4-2.1-7-7.5-7.6-2.4-0.3-4.9-0.2-7.4 0-5.6 0.5-8.1 3.5-8.1 9.1 0.1 17.2 0.1 34.2 0.1 51.2zM412 423.3c-4.5 0-9-0.1-13.5 0.1-2.2 0.1-3.2-1-3.4-2.7-1.5-13.9-10.9-19-23.1-20.6-15.6-2.1-31.3-4.3-47-5.5-18.1-1.4-36.3-2-54.5-2.4-17.5-0.4-35-0.4-52.4 0.2-17.3 0.6-34.6 2-51.9 3.4-12.1 1-24.1 2.5-36.1 4.2-4.1 0.6-8.2 2-12.2 3.4-7.2 2.7-10.2 8.8-11.5 15.8-0.6 3.2-1.7 4.3-5 4.3-8.5-0.2-17-0.1-25.5 0-2.4 0-3.6-0.6-3.1-3.2 0.9-5.2 1.6-10.5 2.8-15.6 3.7-15.3 13.1-24.9 28.6-28.4 17.1-3.9 34.3-6.4 51.8-7.8 13.3-1.1 26.5-2.3 39.8-3.4 4.8-0.4 9.7-0.7 14.5-0.8 20.8-0.3 41.6-0.9 62.4-0.6 15.6 0.2 31.1 1.4 46.7 2.6 17.3 1.4 34.5 2.8 51.7 5.1 11.5 1.6 22.9 4.1 33.9 7.5 10.9 3.3 16.7 12.4 20 22.7 1.9 6 2.5 12.4 3.6 18.7 0.4 2.3-0.6 3.2-3 3.1-4.6-0.2-9.1-0.1-13.6-0.1z"
    fill="#79A623" p-id="3305"></path>
  <path
    d="M89.3 596.9c3.9 0 7.8 0.3 11.7-0.1 3.7-0.3 5 1.2 5.5 4.6 1 6.8 4.2 12.5 10.6 15.3 4.8 2.1 10.1 3.4 15.3 4.1 14.1 1.9 28.3 3.8 42.5 5 14.3 1.2 28.7 1.8 43.1 2.2 16.5 0.5 33.1 0.7 49.6 0.6 13.6-0.1 27.2-0.3 40.7-1.4 21.8-1.9 43.6-4.2 65.3-7.1 10.8-1.4 19.6-5.8 21.4-19.8 0.3-2.4 1.4-3.5 4.2-3.4 8.7 0.2 17.5 0.1 26.3 0 2.3 0 3.4 0.8 3 3.1-1 5.9-1.6 11.9-3.3 17.7-4 14-12.8 23.5-27.5 26.3-12.4 2.4-24.9 5-37.4 6.4-20.1 2.2-40.3 4.1-60.6 5-25.6 1.1-51.3 1.6-76.9 1.3-19.1-0.2-38.2-1.8-57.2-3.5-16.5-1.5-32.9-3.9-49.3-6.3-6.3-0.9-12.7-2.7-18.8-4.7-11.2-3.7-17.8-12.2-21.1-23.1-1.9-6.1-2.5-12.7-3.6-19-0.4-2.1 0.4-3.1 2.7-3 4.6-0.1 9.2-0.2 13.8-0.2zM332.4 489.1c1.6-5.4 3.2-10.7 4.9-16.1 3.3-10.9 6.7-21.8 9.9-32.8 1-3.3 2.6-4.7 6.3-4.5 7.8 0.3 15.6 0.1 23.4 0.1 3.8 0 4.8 1.5 3.5 5.1-7.6 21.1-15.3 42.2-22.9 63.3-3 8.3-6 16.6-8.9 24.9-0.4 1.2-0.4 2.5-0.4 3.8 0 15.7-0.1 31.4 0.1 47.2 0 3.7-1.4 4.9-4.7 4.9-7.8 0-15.6-0.1-23.4 0-3.2 0-4.4-1.4-4.3-4.5 0.1-14.9-0.2-29.8 0.1-44.7 0.1-6.1-2.2-11.3-4.1-16.7-9.4-26.3-18.9-52.5-28.4-78.7-1.2-3.2-0.2-4.6 3.3-4.7 8.5-0.1 17 0 25.5-0.1 2.5 0 3.5 1.3 4.2 3.5 4.7 15.8 9.5 31.5 14.3 47.3 0.3 0.9 0.6 1.8 0.9 2.6 0.2 0.1 0.5 0.1 0.7 0.1zM268.8 510.3v69.9c0 3.8-0.9 4.8-4.8 4.8-7.7 0.1-15.4 0-23.1 0-3.9 0-5-1.1-5-5.1v-53.6-85.1c0-4.9 0.5-5.5 5.5-5.5 7.7 0 15.4 0.1 23.1-0.1 3.2-0.1 4.3 1.2 4.3 4.3v70.4zM397 510.1V441c0-4.9 0.3-5.1 5.3-5.1 7.7 0 15.4 0.1 23 0 3.1-0.1 4.2 1 4.1 4.1-0.1 46.7 0 93.4 0 140 0 4.4-0.7 5.1-5.1 5.1-7.1 0-14.2 0.1-21.3 0.1-5.9 0-6-0.2-6-5.9v-69.2zM895.4 500.6h-62.2c-2 0-4-0.2-6-0.6-3.1-0.7-5.5-3.8-5.2-6.7 0.3-3.3 2.6-4.9 5.6-5.6 1.2-0.3 2.6-0.2 3.9-0.2h80.2c0.8 0 1.7 0 2.5 0.1 4.4 0.4 8.1 3.1 8.8 6.5 0.8 4-1.3 6.9-4.4 9-9.8 6.6-19.8 12.9-29.4 19.7-13 9.4-25.7 19.2-38.5 28.9-2.1 1.6-3.9 3.8-5.5 6-2 2.7-1.5 4.9 1.7 5.8 4.6 1.3 9.4 2.6 14.1 2.8 16.2 0.5 32.4 0.4 48.6 0.6 5.7 0 11.3 0 17 0.1 7.6 0 10.3-2.8 10.4-10.5 0.1-3.3 0.3-6.6 0.9-9.8 0.6-3.1 2.6-5 5.9-5.2 3.5-0.2 5.9 1.8 6.6 4.8 0.8 3.5 1.4 7.3 0.9 10.8-0.7 5-1.8 10.2-4 14.8-3.2 6.5-9.6 8.9-16.5 8.9-21.2 0.1-42.3 0.4-63.5-0.2-9-0.2-18-2.1-26.8-4-3.3-0.7-6.6-3.1-9.2-5.5-5-4.6-5.7-11.9-1.5-17.7 5.7-7.9 12.9-14.3 20.6-20 5.8-4.3 11.3-8.9 17.2-13 8.1-5.7 16.4-11.1 24.7-16.6 1.1-0.8 2.2-1.6 3.4-2.3-0.1-0.4-0.2-0.6-0.3-0.9zM757.5 510.5H659c-1.2 0-2.4 0.1-3.5-0.1-4.2-0.8-6-2.9-5.9-6.6 0.2-3.9 2.7-6.6 6.6-6.9 2-0.2 4 0 6 0 41.4 0 82.8 0 124.2-0.1 4.7 0 8.1 2.9 8.1 7-0.1 3.9-3.4 6.8-7.9 6.8h-15.1c-0.1 1.6-0.2 2.8-0.2 4.1 0 16.8-0.1 33.6 0 50.4 0.1 12.3-6.6 16.6-16.3 17.8-10.1 1.2-20.2-0.4-30-2.8-2.9-0.7-4.3-3-4.2-5.8 0.1-3.7 3.2-7.1 6.6-7.1 2.2 0 4.4 0.8 6.6 1 5.4 0.6 10.8 1.5 16.2 1.6 5.9 0.1 7.5-2 7.5-7.7v-47.2c-0.2-1.3-0.2-2.6-0.2-4.4zM72.7 532.4V486c0-4.4 0.5-4.9 4.9-4.9 7.9 0 15.8 0.1 23.8 0 3.2 0 4.3 1.2 4.3 4.4-0.1 31.6-0.1 63.1 0 94.7 0 3.1-1.2 4.8-4.3 4.9-8.3 0.1-16.5 0.2-24.8 0.1-2.9 0-3.9-1.9-3.9-4.8v-48zM725.2 447.9h51.7c5.1 0 7.1 1.9 7.1 6.4 0 5.5-1.6 7.3-6.9 7.3h-51.4c-2.1 0-3.8 0-5 2.3-6.5 12.1-17.3 19-29.8 23.3-10.5 3.6-21.4 5.4-32.5 5.7-5.1 0.1-7.9-1.7-8.1-5.4-0.2-4.6 2.5-7.4 7.5-7.9 11-1.1 22.2-1.6 32.3-6.3 5.1-2.4 9.5-6.3 14.2-9.6 0.3-0.2 0.3-1 0.5-2.2h-41.7c-4.5 0-6.9-1.8-7.4-5-0.9-5.7 1.7-8.6 7.6-8.7 14.5 0 29.1-0.1 43.6 0 2.5 0 3.7-0.6 3.8-3.2 0.1-1.3 0.5-2.5 0.8-3.8 1.2-4.6 4.2-6.6 8.9-5.8 3.8 0.7 5.5 3.3 5.1 7.9 0.1 1.6-0.1 3.1-0.3 5zM869.2 463.7v13.6c0 4.2-2 6.2-6.3 6.3-4 0.1-6.6-2.2-6.7-6.1-0.1-4.5 0-9 0-13.8h-36c-3.3 0-5.5-1.8-5.9-4.8-0.6-4.3 0.7-6.7 4.2-7.7 1.5-0.4 3-0.6 4.5-0.6h33.3c0-3.3-0.2-6.5 0-9.6 0.4-4.8 2.5-6.3 7.7-6.1 4.1 0.2 5.8 2.1 5.8 6.7v8.9h11.3c7.9 0 15.8-0.1 23.8 0 2.1 0 3-0.6 2.9-2.8-0.1-2.5-0.1-5 0-7.4 0.1-3.7 2.4-5.5 6.8-5.5 4 0 6.3 1.9 6.4 5.5 0.1 2.2 0.2 4.5 0 6.7-0.3 2.9 1 3.6 3.7 3.5 9.7-0.1 19.4-0.1 29.1 0 2.9 0 5.7 1 6.3 4 0.4 2.2 0.1 4.9-1 6.8-0.8 1.3-3.3 2.2-5.1 2.2-9.8 0.2-19.6 0.2-29.4 0-3.2-0.1-4.2 1-4 4 0.2 3.3 0.1 6.6 0.1 9.9 0 3.6-2.6 6-6.6 6-4 0-6-2-6-5.7 0-3.8 0.1-7.6-0.2-11.3-0.1-1-1.4-2.7-2.1-2.7h-36.6z"
    fill="#79A623" p-id="3306"></path>
  <path
    d="M703.7 562.6c-10.2 0-20.3-0.3-30.5 0.1-6.8 0.2-10.9-4.3-10.4-10.6 0.6-8.2 0.2-16.5 0.3-24.8 0.1-4.4 3.4-7.8 7.9-7.8 21.9-0.1 43.7-0.1 65.6 0.1 5.1 0 8.4 3.8 8.4 9 0 7.9 0 15.8 0.1 23.8 0.1 6.7-3 10.2-9.8 10.2-10.6 0.1-21.1 0-31.6 0z m0.2-30.8c-7.8 0-15.6 0-23.4-0.1-2.9 0-4.2 1.3-4.3 4-0.1 3.7-0.1 7.3 0 11 0.1 2.5 1.5 3.9 4.1 3.9h47.1c2.7 0 3.8-1.3 3.7-4-0.1-3.4-0.1-6.9 0.1-10.3 0.1-3.4-1.3-4.5-4.7-4.5-7.5 0.1-15 0-22.6 0zM72.7 452.2c0-4.1 0.1-8.3 0-12.4-0.1-2.7 1.1-4 3.8-4H102c2.5 0 3.5 1.3 3.5 3.5 0.1 8.6 0 17.3 0 25.9 0 2.5-1.8 3.3-3.8 3.4-8.5 0.2-17 0.2-25.5 0.1-2.2 0-3.6-1.4-3.6-4 0.2-4.2 0.1-8.4 0.1-12.5zM732.3 462.7c4.8 1.3 11.2 2.4 17.3 4.6 11.5 4.2 22.7 9 34 13.5 0.9 0.3 1.7 0.9 2.5 1.4 3.5 2.5 4.8 6.8 3.1 9.8-1.8 3.2-5.8 3.7-10 1.9-7-3.1-13.9-6.3-21.1-8.9-8.4-3-17-5.3-25.5-7.9-1.7-0.5-3.4-1-4.9-1.8-2.9-1.4-4.5-3.9-4-7.2 0.4-3.2 3.5-5.4 8.6-5.4z"
    fill="#79A623" p-id="3307"></path>
</svg>