<svg t="1611575054244" class="icon" viewBox="0 0 1024 1024" version="1.1" xmlns="http://www.w3.org/2000/svg" p-id="3880" data-spm-anchor-id="a313x.7781069.0.i12" width="200" height="200"><path d="M0 512c0 282.7776 229.2224 512 512 512s512-229.2224 512-512S794.7776 0 512 0 0 229.2224 0 512z" fill="#EDEEF5" p-id="3881" data-spm-anchor-id="a313x.7781069.0.i11" class=""></path><path d="M358.8096 689.7152c21.248 55.04 190.72 210.3296 318.6688-13.1584 1.024 0 2.1504 0.0512 3.1744 0.1024-24.064-22.784-42.5984-60.672-35.4816-129.4848-64.256 100.4544-186.624 106.4448-249.4976 2.6112 4.6592 30.3104 2.4064 77.9776-36.864 139.9296z" fill="#EDE7E6" p-id="3882"></path><path d="M392.3968 554.9568c5.6832 20.1728 152.576 157.184 285.696 123.5456-38.9632-47.9232-25.1392-122.7264-22.7328-167.2704 13.7728-30.208-258.9184 16.8448-262.9632 43.7248z" fill="#E3DCDB" p-id="3883"></path><path d="M686.7968 392.5504c-0.8192 45.312-8.96 84.3264-22.1696 116.7872 73.7792-21.0432 91.1872-186.6752 22.1696-116.7872z" fill="#EEE7E6" p-id="3884"></path><path d="M649.0112 284.3136c-144.9984 32.512-204.8-33.6384-234.4448-53.8112-47.4112 37.8368-35.5328 125.2352-50.7904 141.2096-2.6112-3.2768-5.0176-6.7072-7.168-10.2912-13.2608 360.6016 333.4656 336.1792 330.2912 19.0976-31.2832-47.9232-25.7024-48.9984-37.888-96.2048z" fill="#F7EDEB" p-id="3885"></path><path d="M950.1184 775.2192c-25.8048-39.2192-203.0592-98.6112-272.64-98.6112-137.984 240.9472-324.2496 41.472-320.8704 2.2528-96.3584-6.6048-212.5312 62.9248-276.992 108.0832 90.8288 142.4384 250.2144 237.056 431.8208 237.056 186.2656 0 349.2352-99.4816 438.6816-248.1152v-0.6656zM411.4944 233.6256c29.6448 20.1728 89.4464 86.272 234.4448 53.8112 12.4416 48.1792 6.1952 48.1792 39.7824 99.1744 24.5248 8.3968 95.6416-232.8064-112.5888-265.6256-243.712-37.8368-275.0464 176.4864-212.4288 253.8496 15.2576-15.9744 3.4304-103.424 50.7904-141.2096z" fill="#1353c1" p-id="3886" data-spm-anchor-id="a313x.7781069.0.i13" class=""></path></svg>