<svg xmlns="http://www.w3.org/2000/svg" viewBox="0 0 16 16" id="feather-outlined">
  <g fill="none" fill-rule="evenodd">
    <path d="M0 0h16v16H0z"></path>
    <path
      d="M11.815 7.235c-.964 1.424-2.254 2.65-3.626 3.466-1.075.64-2.144.963-3.527 1.36-.011.004-.567.367-.834.642a3.887 3.887 0 00-.66.997.756.756 0 01-.69.464.419.419 0 01-.41-.52l.023-.089c.325-1.28 1.16-4.262 2.284-6.057 1.462-2.332 1.769-2.557 2.707-3.392a8.93 8.93 0 012.922-1.761c.984-.352 2.631-.649 3.84-.494.301.038.512.334.473.66a.64.64 0 01-.058.2l-1.292 2.687a.573.573 0 01-.266.271c-.384.11-.717.208-.998.295-.28.088-.57.184-.87.288.036.003.655.05.688.06a.584.584 0 01.4.623.635.635 0 01-.106.3z"
      stroke="currentColor" stroke-width="1.25" stroke-linecap="round"></path>
  </g>
</svg>