<svg xmlns="http://www.w3.org/2000/svg" viewBox="0 0 16 16" id="new_group">
  <path
    d="M14.351 10.204A6.471 6.471 0 0010.7 3.087a2.707 2.707 0 00-5.4 0 6.471 6.471 0 00-3.651 7.117 2.71 2.71 0 00-1.524 2.437 2.706 2.706 0 004.618 1.916A6.433 6.433 0 008 15.436c1.188 0 2.3-.32 3.257-.88a2.706 2.706 0 004.618-1.916 2.71 2.71 0 00-1.524-2.436zm-3.89 2.437c0 .291.046.574.132.838A5.18 5.18 0 018 14.17a5.18 5.18 0 01-2.593-.69 2.709 2.709 0 00-2.52-3.546 5.206 5.206 0 012.638-5.546 2.709 2.709 0 004.95 0 5.206 5.206 0 012.638 5.547 2.709 2.709 0 00-2.652 2.707z"
    fill="#F3CA6B" fill-rule="nonzero"></path>
</svg>