<svg t="1616319108617" viewBox="0 0 1024 1024" version="1.1" xmlns="http://www.w3.org/2000/svg" p-id="2859">
  <path
    d="M288.448 613.312A32.224 32.224 0 0 1 288 608v-192c0-1.824 0.16-3.584 0.448-5.312A96.032 96.032 
    0 0 1 320 224a96 96 0 0 1 31.552 186.688c0.32 1.728 0.448 3.52 0.448 5.312v192c0 1.824-0.16 3.584-0.448 5.312A96.032 96.032 0 0 1 320 800a96 96 0 0 1-31.552-186.688zM768 352h-256a32 32 0 1 1 0-64h256a32 32 0 0 1 0 64z m0 192h-192a32 32 0 0 1 0-64h192a32 32 0 0 1 0 64z m0 192h-256a32 32 0 0 1 0-64h256a32 32 0 0 1 0 64z m-448-64a32 32 0 1 0 0 64 32 32 0 0 0 0-64z m0-384a32 32 0 1 0 0 64 32 32 0 0 0 0-64z"
    p-id="2860"></path>
</svg>