<svg xmlns="http://www.w3.org/2000/svg"
  xmlns:xlink="http://www.w3.org/1999/xlink" width="18px" height="18px" viewBox="0 0 18 18" version="1.1">
  <!-- Generator: Sketch 57.1 (83088) - https://sketch.com -->
  <title>plus-circle-fill@1x</title>
  <desc>Created with Sketch.</desc>
  <g id="2.0设计稿" stroke="none" stroke-width="1" fill="none" fill-rule="evenodd">
    <g transform="translate(-1176.000000, -23.000000)" fill-rule="nonzero">
      <g id="header/b">
        <g id="编组-3" transform="translate(1175.000000, 22.000000)">
          <g id="plus-circle-fill">
            <rect id="矩形" fill="#000000" opacity="0" x="0" y="0" width="20" height="20"/>
            <path d="M10,1.25 C5.16796875,1.25 1.25,5.16796875 1.25,10 C1.25,14.8320312 5.16796875,18.75 10,18.75 C14.8320312,18.75 18.75,14.8320312 18.75,10 C18.75,5.16796875 14.8320312,1.25 10,1.25 Z M13.75,10.46875 C13.75,10.5546875 13.6796875,10.625 13.59375,10.625 L10.625,10.625 L10.625,13.59375 C10.625,13.6796875 10.5546875,13.75 10.46875,13.75 L9.53125,13.75 C9.4453125,13.75 9.375,13.6796875 9.375,13.59375 L9.375,10.625 L6.40625,10.625 C6.3203125,10.625 6.25,10.5546875 6.25,10.46875 L6.25,9.53125 C6.25,9.4453125 6.3203125,9.375 6.40625,9.375 L9.375,9.375 L9.375,6.40625 C9.375,6.3203125 9.4453125,6.25 9.53125,6.25 L10.46875,6.25 C10.5546875,6.25 10.625,6.3203125 10.625,6.40625 L10.625,9.375 L13.59375,9.375 C13.6796875,9.375 13.75,9.4453125 13.75,9.53125 L13.75,10.46875 Z" id="形状" fill="#1453c1"/>
          </g>
        </g>
      </g>
    </g>
  </g>
</svg>